<svg width="66" height="62" viewBox="0 0 66 62" fill="none" xmlns="http://www.w3.org/2000/svg">
<path d="M27.5515 59.15L27.5496 59.15C18.5184 58.9997 10.1608 51.0723 5.7191 40.8449C1.28746 30.6406 1.00557 18.7064 7.47991 10.9193C13.7409 3.43242 26.0414 1.31015 37.7343 3.49981C43.5413 4.58725 49.0936 6.72496 53.5263 9.7017C57.963 12.6812 61.2176 16.4577 62.5634 20.8077C65.3025 29.6613 62.2933 39.3236 55.6598 46.7785C49.0334 54.2254 38.8745 59.359 27.5515 59.15Z" fill="white" stroke="#FCFBF9" stroke-width="2.07217" stroke-miterlimit="10" stroke-linecap="round" stroke-linejoin="round"/>
<path d="M29.5888 35.0038C29.5795 36.6129 31.3278 37.6181 32.7137 36.8005L40.1745 32.3994C41.5268 31.6017 41.5352 29.6485 40.1899 28.8391L32.7801 24.381C31.4035 23.5528 29.6489 24.5382 29.6397 26.1447L29.5888 35.0038Z" fill="#7B7FDA"/>
</svg>
