<svg width="57" height="56" viewBox="0 0 57 56" fill="none" xmlns="http://www.w3.org/2000/svg">
<path d="M52.1595 43.7127L52.1586 43.7145C48.3532 51.004 38.3687 54.8394 27.9546 54.4415C17.5761 54.0451 7.33773 49.4561 3.09686 40.5928C-0.9613 32.0511 1.94307 21.4237 8.35246 13.2741C14.767 5.11789 24.3729 -0.152062 33.2197 1.63278C51.2973 5.27994 61.7443 25.4411 52.1595 43.7127Z" fill="white" stroke="#FCFBF9" stroke-width="2.07217" stroke-miterlimit="10" stroke-linecap="round" stroke-linejoin="round"/>
<path d="M25.5888 32.6224C25.5795 34.2315 27.3278 35.2366 28.7137 34.4191L36.1745 30.018C37.5268 29.2203 37.5352 27.267 36.1899 26.4576L28.7801 21.9996C27.4035 21.1714 25.6489 22.1568 25.6397 23.7632L25.5888 32.6224Z" fill="#4DA47E"/>
</svg>
