<svg width="65" height="66" viewBox="0 0 65 66" fill="none" xmlns="http://www.w3.org/2000/svg">
<path d="M8.95122 52.6286L8.94982 52.6273C2.26221 46.556 1.21191 35.0847 4.62171 24.4686C8.0238 13.8765 15.6857 4.72226 25.6886 3.14198C35.3331 1.64647 45.9769 8.16704 53.3192 17.5271C56.9656 22.1755 59.7276 27.4451 61.0947 32.6065C62.463 37.7727 62.4172 42.7579 60.5586 46.9147C56.7756 55.3752 48.1395 60.6509 38.2362 61.8765C28.3434 63.1008 17.3222 60.2561 8.95122 52.6286Z" fill="white" stroke="#FCFBF9" stroke-width="2.07217" stroke-miterlimit="10" stroke-linecap="round" stroke-linejoin="round"/>
<path d="M28.2073 39.0038C28.1981 40.6129 29.9464 41.6181 31.3323 40.8005L38.793 36.3994C40.1453 35.6017 40.1538 33.6485 38.8085 32.8391L31.3986 28.381C30.0221 27.5528 28.2675 28.5382 28.2582 30.1447L28.2073 39.0038Z" fill="#EA7052"/>
</svg>
